<svg width="61" height="71" viewBox="0 0 61 71" fill="none" xmlns="http://www.w3.org/2000/svg">
<path d="M45.5763 70.9097H15.4237C7.12707 70.9097 0.376749 64.1596 0.376749 55.8628V15.7378C0.376749 7.44112 7.12692 0.690796 15.4237 0.690796H45.5763C53.8729 0.690796 60.6233 7.44097 60.6233 15.7378V55.8628C60.6233 64.1594 53.8737 70.9097 45.5763 70.9097ZM15.4237 4.0347C8.97083 4.0347 3.72065 9.28504 3.72065 15.7378V55.8628C3.72065 62.3162 8.97099 67.5658 15.4237 67.5658H45.5763C52.0292 67.5658 57.2794 62.3161 57.2794 55.8628V15.7378C57.2794 9.28489 52.029 4.0347 45.5763 4.0347H15.4237Z" fill="#25317A"/>
<path d="M32.4856 19.9104H14.6105C13.6874 19.9104 12.9385 19.1617 12.9385 18.2385C12.9385 17.3154 13.6873 16.5665 14.6105 16.5665H32.4871C33.4102 16.5665 34.1591 17.3153 34.1591 18.2385C34.1585 19.1616 33.4103 19.9104 32.4867 19.9104H32.4856Z" fill="#25317A"/>
<path d="M38.5785 31.6178H14.6105C13.6874 31.6178 12.9385 30.8691 12.9385 29.9459C12.9385 29.0227 13.6873 28.2739 14.6105 28.2739H38.5785C39.5016 28.2739 40.2505 29.0227 40.2505 29.9459C40.2505 30.8696 39.5017 31.6178 38.5785 31.6178Z" fill="#25317A"/>
<path d="M46.3895 43.3251H14.6105C13.6874 43.3251 12.9385 42.5763 12.9385 41.6532C12.9385 40.73 13.6873 39.9812 14.6105 39.9812H46.3895C47.3126 39.9812 48.0614 40.73 48.0614 41.6532C48.0614 42.5763 47.3133 43.3251 46.3895 43.3251Z" fill="#25317A"/>
<path d="M46.3895 55.0324H14.6105C13.6874 55.0324 12.9385 54.2836 12.9385 53.3604C12.9385 52.4373 13.6873 51.6885 14.6105 51.6885H46.3895C47.3126 51.6885 48.0614 52.4372 48.0614 53.3604C48.0614 54.2835 47.3133 55.0324 46.3895 55.0324Z" fill="#25317A"/>
</svg>
